<svg id="Ebene_1" data-name="Ebene 1" xmlns="http://www.w3.org/2000/svg" viewBox="0 0 243.85 217.44"><defs><style>.cls-1{fill:#1e3033;}.cls-2{fill:#ededed;}.cls-3{fill:#36a9e1;}.cls-4{fill:#3aaa35;}</style></defs><title>kirbitz-logo</title><path class="cls-1" d="M183.08,213.69s18.08-12.58,34.39,7.12c10.23,12.35,14.95,28.89,26.56,52.93,13.48,27.91,42.68,51.78,70.63,58.39,15.87,3.75,41.26.84,74.85-14.61,0,0-8,0-24.7-9.25S332.14,287,319.38,264.37s-27.6-49.16-45-66.78c-19-19.26-35-18.29-41.59-17.78-8.63.67-19.8,1.71-30.41,14.89Z" transform="translate(-170.39 -120)"/><path class="cls-2" d="M184.2,214s22.11-28.12,36.4-31.15c16.94-3.59,35.32,5.92,42.34,37,7.6,33.71,12.4,63.82,33.73,80.82,11.48,9.15,42,27.67,78,23.33,0,0-26.31,12.71-56.43,9.33C280,329,258.31,313.84,241.56,283c-5.53-10.16-7.2-28.53-13.2-42.35C208.14,194.17,184.2,214,184.2,214Z" transform="translate(-170.39 -120)"/><path class="cls-1" d="M170.39,220.11s14.2-2.8,19.17-16.15c7.5-20.16,17.87-28.14,30.09-31.56,14.67-4.11,21.49-1.67,38.67-2.6,35.23-1.91,49.67-35.55,49.67-35.55s-14,39.11-41.75,47.45c-21,6.31-29.75-5.27-49.52,3.1-15.22,6.44-18.2,23.45-28.16,29.12C176.2,221,170.39,220.11,170.39,220.11Z" transform="translate(-170.39 -120)"/><path class="cls-1" d="M212,215.91s12.45,9.4,27.8,3.45c15.64-6.06,16.81-18.51,16.81-18.51l4.56,4.95S247.56,224.94,243,236c-7,17-7.3,28.28-7.3,28.28s-5.85-22.25-11.62-33A61.45,61.45,0,0,0,212,215.91Z" transform="translate(-170.39 -120)"/><circle class="cls-1" cx="224.98" cy="200.87" r="2.91" transform="translate(-160.64 292.15) rotate(-86.23)"/><polygon class="cls-1" points="239.78 217.44 174.96 194.74 180.58 188.22 243.85 203.56 239.78 217.44"/><path class="cls-1" d="M306,120s-3.12,29.18-24,44.5l2.28,1.82s1.74-.49,9-9.37C303.5,144.39,306,120,306,120Z" transform="translate(-170.39 -120)"/><path class="cls-3" d="M263.88,224.25s-.48,32.68,14.13,61c16.63,32.25,54.35,34.17,54.35,34.17s-37.73-10.17-53-45.08C272.48,258.69,263.88,224.25,263.88,224.25Z" transform="translate(-170.39 -120)"/><path class="cls-4" d="M263.88,224.25s-3,26.42,4,51.92c5.74,20.89,22.82,32.73,32.33,36.83,14.67,6.33,31.69,6.35,31.69,6.35s-39.69-4.69-54.69-36C264.61,257.11,263.88,224.25,263.88,224.25Z" transform="translate(-170.39 -120)"/></svg>